<?xml version="1.0" encoding="UTF-8"?>
<svg width="34px" height="34px" viewBox="0 0 34 34" version="1.1" xmlns="http://www.w3.org/2000/svg" xmlns:xlink="http://www.w3.org/1999/xlink">
    <!-- Generator: Sketch 51.2 (57519) - http://www.bohemiancoding.com/sketch -->
    <title>mail</title>
    <desc>Created with Sketch.</desc>
    <defs></defs>
    <g id="Page-1" stroke="none" stroke-width="1" fill="none" fill-rule="evenodd">
        <g id="Xiqun-portfolio" transform="translate(-1113.000000, -3163.000000)">
            <g id="Footer" transform="translate(180.000000, 3156.000000)">
                <g id="social" transform="translate(933.000000, 7.000000)">
                    <g id="mail">
                        <rect id="Rectangle" x="0" y="0" width="34" height="34"></rect>
                        <circle id="Oval" stroke="#000000" stroke-width="2" cx="17" cy="17" r="16"></circle>
                        <path d="M10.1316507,14.6292091 C9.73960274,14.3833676 9.36956164,14.0452683 9.02176027,13.6150189 C8.6739589,13.1847694 8.5,12.7851289 8.5,12.4163128 C8.5,11.9597656 8.63122603,11.5792017 8.89367808,11.2747291 C9.15613014,10.9703642 9.53082877,10.8181818 10.017774,10.8181818 L23.9821096,10.8181818 C24.3930205,10.8181818 24.7488562,10.9557064 25.0492671,11.2308635 C25.3496781,11.5060205 25.5,11.8367909 25.5,12.2231748 C25.5,12.6856498 25.345137,13.1276471 25.0350616,13.548951 C24.7251027,13.9704704 24.3394589,14.3305565 23.8777808,14.6289935 C21.4998767,16.1569611 20.0198288,17.108209 19.4381027,17.4828451 C19.3748767,17.5239085 19.2403904,17.6130408 19.0348767,17.7506732 C18.829363,17.8883056 18.6586644,17.9996402 18.5226644,18.0844614 C18.3866644,18.1692827 18.2222534,18.2643428 18.0294315,18.3697496 C17.8366096,18.4749408 17.6546164,18.5541576 17.4839178,18.6066455 C17.3131027,18.6594566 17.1549795,18.6856467 17.0095479,18.6856467 L17,18.6856467 L16.9904521,18.6856467 C16.8450205,18.6856467 16.6868973,18.6594566 16.5160822,18.6066455 C16.3453836,18.5541576 16.1635068,18.4750486 15.9705685,18.3697496 C15.7776301,18.2644506 15.6132192,18.1692827 15.4772192,18.0844614 C15.3413356,17.9996402 15.1705205,17.8883056 14.9650068,17.7506732 C14.7594932,17.6131486 14.6251233,17.5239085 14.5618973,17.4828451 C13.9863425,17.1083168 13.1578836,16.5741694 12.0764041,15.8805107 C10.9949247,15.186852 10.3467123,14.7696437 10.1316507,14.6292091 Z M24.5512603,15.5687092 C24.9118699,15.3404356 25.228,15.0856486 25.5,14.8047793 L25.5,21.7767174 C25.5,22.1632091 25.3515411,22.4937639 25.0541575,22.7690287 C24.7568904,23.0442936 24.3995411,23.1818182 23.982226,23.1818182 L10.0178904,23.1818182 C9.6004589,23.1818182 9.24310959,23.0442936 8.94584247,22.7690287 C8.64857534,22.4938717 8.5,22.1632091 8.5,21.7767174 L8.5,14.8047793 C8.77828767,15.0915764 9.09767808,15.3463634 9.45817123,15.5687092 C11.7475822,17.00873 13.3191507,18.0186091 14.1729932,18.598131 C14.5334863,18.8439724 14.8259795,19.0358171 15.0504726,19.173234 C15.2749658,19.3108664 15.573863,19.451301 15.9469315,19.5947534 C16.32,19.7382058 16.6679178,19.8098782 16.9904521,19.8098782 L17,19.8098782 L17.0096644,19.8098782 C17.3321986,19.8098782 17.68,19.7382058 18.0530685,19.5947534 C18.4262534,19.451301 18.7250342,19.3108664 18.9495274,19.173234 C19.174137,19.0358171 19.4666301,18.8439724 19.8271233,18.598131 C20.9020822,17.8780667 22.4770274,16.8681876 24.5512603,15.5687092 Z" id="Shape" fill="#000000"></path>
                    </g>
                </g>
            </g>
        </g>
    </g>
</svg>