<?xml version="1.0" encoding="UTF-8"?>
<svg width="48px" height="48px" viewBox="0 0 48 48" version="1.1" xmlns="http://www.w3.org/2000/svg" xmlns:xlink="http://www.w3.org/1999/xlink">
    <!-- Generator: Sketch 51.2 (57519) - http://www.bohemiancoding.com/sketch -->
    <title>mylogo</title>
    <desc>Created with Sketch.</desc>
    <defs>
        <linearGradient x1="103.513169%" y1="40.024859%" x2="-11.1019112%" y2="55.2887868%" id="linearGradient-1">
            <stop stop-color="#FF931C" offset="0%"></stop>
            <stop stop-color="#FFD730" offset="100%"></stop>
        </linearGradient>
        <path d="M16.3288667,8.51055258 C18.4620735,8.38561011 21.0427186,8.8863998 21.24072,7.21222694 C21.4524846,5.42168133 18.7412456,5.53600267 16.3288667,5.53600267 C13.9164877,5.53600267 11.8472784,4.75624243 11.6017981,6.75833967 C11.3563179,8.76043692 14.1956599,8.63549506 16.3288667,8.51055258 Z" id="path-2"></path>
        <linearGradient x1="37.0911776%" y1="0%" x2="65.2837022%" y2="95.315808%" id="linearGradient-3">
            <stop stop-color="#FF931C" offset="0%"></stop>
            <stop stop-color="#FFD730" offset="100%"></stop>
        </linearGradient>
        <linearGradient x1="3.25126438%" y1="6.56713987%" x2="106.574064%" y2="86.6989596%" id="linearGradient-4">
            <stop stop-color="#FF931C" offset="0%"></stop>
            <stop stop-color="#FFD730" offset="100%"></stop>
            <stop stop-color="#FFD730" offset="100%"></stop>
        </linearGradient>
        <path d="M27.3027153,9.55384615 C29.1492586,9.55384615 28.8283209,7.20698986 28.8283209,4.91129915 C28.8283209,3.82057932 29.2274014,2.13615798 28.9765051,1.06721816 C28.8236311,0.415901173 28.0037666,0.0422495043 27.9399839,0.0280392241 C26.3852021,-0.318353755 25.7187573,2.61560843 25.7187573,4.91129915 C25.7187573,7.20698986 25.456172,9.55384615 27.3027153,9.55384615 Z" id="path-5"></path>
        <linearGradient x1="0%" y1="-2.49830343%" x2="58.3402354%" y2="85.4234627%" id="linearGradient-6">
            <stop stop-color="#FA8300" offset="0%"></stop>
            <stop stop-color="#F8CD16" offset="100%"></stop>
        </linearGradient>
        <path d="M6.78606072,26.7617774 C8.99656341,26.5659337 12.4622122,26.9210817 11.79245,25.2328763 C11.0898169,23.4618164 9.23806646,23.7383662 6.78606072,23.7383662 C4.33405498,23.7383662 1.58444092,23.9387752 1.23665186,25.5791896 C0.888862793,27.2196039 4.57555804,26.957621 6.78606072,26.7617774 Z" id="path-7"></path>
        <linearGradient x1="-31.7881362%" y1="78.543091%" x2="88.6591729%" y2="50%" id="linearGradient-8">
            <stop stop-color="#FF931C" offset="0%"></stop>
            <stop stop-color="#FFD730" offset="100%"></stop>
        </linearGradient>
        <path d="M12.4761899,36.3580116 C11.1371665,38.278813 9.92110322,39.5822306 8.63629313,38.7911449 C7.35148305,38.0000593 8.38271684,36.2945495 10.0428723,34.3109803 C11.7030277,32.327411 12.7342,30.642182 14.6353186,31.2728956 C16.4474982,31.8741029 13.8152134,34.4372101 12.4761899,36.3580116 Z" id="path-9"></path>
        <linearGradient x1="127.296714%" y1="100%" x2="23.1720627%" y2="30.9867261%" id="linearGradient-10">
            <stop stop-color="#FA8300" offset="0%"></stop>
            <stop stop-color="#EEC000" offset="100%"></stop>
        </linearGradient>
        <path d="M39.7455516,30.6036076 C37.9471592,29.6449335 36.4479836,28.6997101 37.1975714,27.5322454 C37.9471592,26.3647807 39.3637539,26.9738751 41.1621463,27.9325491 C42.9605388,28.8912232 47.2131831,30.4432635 46.2073751,32.1239084 C45.2015672,33.8045533 41.5439441,31.5622817 39.7455516,30.6036076 Z" id="path-11"></path>
        <linearGradient x1="3.25126438%" y1="6.56713987%" x2="100%" y2="93.5599286%" id="linearGradient-12">
            <stop stop-color="#F98300" offset="0%"></stop>
            <stop stop-color="#F9C900" offset="100%"></stop>
        </linearGradient>
        <path d="M43.0584598,23.9460871 C44.8243813,24.2848351 44.5961812,22.1054829 44.5961812,19.8349825 C44.5961812,17.5644822 45.6049784,13.660167 43.6051066,13.3783826 C41.6052348,13.0965983 41.5207385,17.5644822 41.5207385,19.8349825 C41.5207385,22.1054829 41.2925383,23.6073391 43.0584598,23.9460871 Z" id="path-13"></path>
        <linearGradient x1="3.25126438%" y1="6.56713987%" x2="106.574064%" y2="86.6989596%" id="linearGradient-14">
            <stop stop-color="#F68100" offset="0%"></stop>
            <stop stop-color="#FFCE00" offset="98.0062319%"></stop>
            <stop stop-color="#FFD730" offset="100%"></stop>
        </linearGradient>
        <path d="M38.6029456,13.7763859 C40.110812,13.1624038 39.5386923,10.4604345 39.5386923,8.47330383 C39.5386923,6.18035534 40.1509539,3.76806589 38.5677434,3.61239649 C37.508852,3.50828085 36.7980198,4.62536043 36.5184256,6.10693013 C36.3799822,6.84054214 36.4328431,7.71393744 36.4328431,8.47330383 C36.4328431,9.48165734 35.9325519,11.5156531 36.2366209,12.6401973 C36.5551056,13.8180551 37.6822068,14.0634537 37.848276,14.0429865 C38.2042361,13.999116 38.4815731,13.825807 38.6029456,13.7763859 Z" id="path-15"></path>
        <linearGradient x1="-21.7551695%" y1="102.292496%" x2="72.6495854%" y2="20.0455333%" id="linearGradient-16">
            <stop stop-color="#FA8300" offset="0%"></stop>
            <stop stop-color="#F7C800" offset="100%"></stop>
        </linearGradient>
        <path d="M21.9534644,45.8369904 C20.3994684,45.7006848 20.7474007,43.6278271 20.9351182,41.4767047 C21.0435966,40.2336113 21.253427,38.1196394 21.759636,36.9782778 C22.129401,36.1445597 22.6840999,36.0483217 23.3400706,36.1058589 C24.8940666,36.2421645 24.4034939,39.6133388 24.2157764,41.7644611 C24.028059,43.9155834 23.5074604,45.9732961 21.9534644,45.8369904 Z" id="path-17"></path>
        <linearGradient x1="127.064637%" y1="121.677774%" x2="37.5392894%" y2="37.054565%" id="linearGradient-18">
            <stop stop-color="#FA8300" offset="0%"></stop>
            <stop stop-color="#EEC000" offset="100%"></stop>
        </linearGradient>
        <path d="M37.3761897,42.9369133 C35.8008854,44.275304 30.2931058,34.9560064 31.5332199,34.2070708 C32.773334,33.4581351 33.5601558,34.5766081 35.0557068,36.1845025 C36.5512578,37.7923969 39.7987467,41.3889944 37.3761897,42.9369133 Z" id="path-19"></path>
        <linearGradient x1="21.750515%" y1="107.212295%" x2="73.514463%" y2="-4.94467995%" id="linearGradient-20">
            <stop stop-color="#FF931C" offset="0%"></stop>
            <stop stop-color="#FF931C" offset="0%"></stop>
            <stop stop-color="#FFD730" offset="100%"></stop>
        </linearGradient>
        <path d="M8.00714783,18.9677142 C11.2780498,19.6729776 10.1635575,15.3475467 10.6356212,13.356043 C11.1076849,11.3645394 10.5200688,9.62441108 9.14373721,9.33272141 C8.6724107,9.23283191 7.93540026,9.5015048 7.63973345,10.8187553 C7.57566658,11.1041851 7.3460014,14.2259362 7.32690002,15.2473949 C7.31898326,15.6707486 6.75347371,18.292843 8.00714783,18.9677142 Z" id="path-21"></path>
        <linearGradient x1="79.9216786%" y1="-22.2839129%" x2="106.574064%" y2="86.6989596%" id="linearGradient-22">
            <stop stop-color="#FF931C" offset="0%"></stop>
            <stop stop-color="#FFD730" offset="100%"></stop>
            <stop stop-color="#FFD730" offset="100%"></stop>
        </linearGradient>
    </defs>
    <g id="Page-1" stroke="none" stroke-width="1" fill="none" fill-rule="evenodd">
        <g id="mylogo" transform="translate(-1.000000, 1.000000)" fill-rule="nonzero">
            <g id="Group-3">
                <g id="Oval-2" transform="translate(16.419642, 6.978808) rotate(-126.000000) translate(-16.419642, -6.978808) " stroke="url(#linearGradient-1)" stroke-width="0.525">
                    <path d="M16.3135183,8.24850168 C16.6204364,8.23052541 16.9436385,8.22409242 17.3633667,8.22464648 C17.4841422,8.2248059 17.5804948,8.22532561 17.7958932,8.22678345 C20.14331,8.24269672 20.8762976,8.05854909 20.9800368,7.18139641 C21.0517653,6.57490606 20.7287177,6.22396008 19.9570638,6.01646533 C19.3040569,5.84087429 18.5168043,5.7947881 17.005739,5.79716295 C16.8736885,5.79741806 16.8736885,5.79741806 16.7416019,5.79776882 C16.5348038,5.79831889 16.4429345,5.79850267 16.3288667,5.79850267 C15.8747596,5.79850267 15.4759932,5.77649068 14.7889029,5.72295828 C12.5142838,5.54573874 11.9986351,5.67874154 11.862347,6.79028597 C11.7689202,7.5522597 12.1845906,7.9724482 13.1285174,8.17545394 C13.8844989,8.3380392 14.7332723,8.34105709 16.3135183,8.24850168 Z" stroke-linejoin="square"></path>
                    <use xlink:href="#path-2"></use>
                </g>
                <g id="Oval" stroke-width="0.525">
                    <path stroke="url(#linearGradient-3)" d="M27.3027153,9.29134615 C27.9261226,9.29134615 28.2587652,8.99527146 28.4341569,8.3478909 C28.5815744,7.80376445 28.6027578,7.23884341 28.5765415,5.80173891 C28.5699614,5.4410385 28.5673782,5.26800192 28.566239,5.05972802 C28.5658947,4.98554522 28.5658947,4.98554522 28.5658209,4.91129915 C28.5658209,4.55496668 28.5905853,4.27813576 28.6829322,3.44635624 C28.7049814,3.24775662 28.7184879,3.12246844 28.73159,2.99217207 C28.8183974,2.12889654 28.8235901,1.56449684 28.7209501,1.12720078 C28.6304182,0.741491015 28.0903715,0.330480251 27.8829005,0.284257373 C26.7847586,0.0396001227 25.9812573,2.21476046 25.9812573,4.91129915 C25.9811971,4.98540392 25.9811971,4.98540392 25.9809192,5.05944951 C25.9801586,5.23197427 25.9786513,5.37393745 25.9747985,5.67578183 C25.9559756,7.15043188 25.9810785,7.73812378 26.1352868,8.30362503 C26.3197548,8.98009237 26.6649867,9.29134615 27.3027153,9.29134615 Z" stroke-linejoin="square"></path>
                    <use stroke="url(#linearGradient-4)" xlink:href="#path-5"></use>
                </g>
                <path d="M26.9411765,31.8461538 C32.7401663,31.8461538 35.7647059,27.5485328 35.7647059,22.4675131 C35.7647059,17.3864934 30.4460487,13.4461538 24.6470588,13.4461538 C18.848069,13.4461538 15.8235294,17.3864934 15.8235294,22.4675131 C15.8235294,27.5485328 21.1421866,31.8461538 26.9411765,31.8461538 Z" id="Oval-5" stroke="url(#linearGradient-6)" stroke-width="0.9625"></path>
                <g id="Oval-2" transform="translate(6.545313, 25.315012) rotate(-12.000000) translate(-6.545313, -25.315012) " stroke="url(#linearGradient-4)" stroke-width="0.525">
                    <path d="M6.76289478,26.5003016 C7.16171385,26.4649675 7.51106109,26.4493415 8.30440555,26.4243329 C8.38115557,26.4219143 8.38115557,26.4219143 8.45787099,26.4194759 C9.79941336,26.3766426 10.4452518,26.3217973 10.9680295,26.1681882 C11.5562635,25.9953458 11.721359,25.7655114 11.5484508,25.3296782 C11.0806958,24.1506532 10.3263322,23.9545789 7.63867936,23.9930084 C7.23918012,23.9987206 7.03238753,24.0008662 6.78606072,24.0008662 C3.50724356,24.0008662 1.74786564,24.4336038 1.49344396,25.6336328 C1.38104265,26.1637953 1.89715108,26.4801707 3.07803245,26.5978746 C4.01659,26.6914249 5.10527354,26.6471616 6.76289478,26.5003016 Z" stroke-linejoin="square"></path>
                    <use xlink:href="#path-7"></use>
                </g>
                <g id="Oval-2" stroke="url(#linearGradient-8)" stroke-width="0.525">
                    <path d="M12.2608503,36.2078946 C12.512732,35.8465756 12.7055012,35.59504 13.3065102,34.8290732 C13.3584143,34.7629106 13.3584143,34.7629106 13.4102097,34.6967916 C14.2386343,33.6387129 14.6375456,33.0637519 14.8561473,32.5460858 C15.1007269,31.9669019 15.0215352,31.6775954 14.5526619,31.5220424 C13.6462566,31.2213341 12.9411238,31.4730641 12.0956653,32.3074442 C11.8403419,32.5594219 11.5757906,32.858286 11.2209629,33.2876994 C11.1495035,33.3741797 10.4644431,34.2162758 10.2441715,34.4794584 C8.34983306,36.7428317 7.85392091,38.0011527 8.77392338,38.5676183 C9.7310737,39.1569566 10.7086559,38.4344854 12.2608503,36.2078946 Z" stroke-linejoin="square"></path>
                    <use xlink:href="#path-9"></use>
                </g>
                <g id="Oval-4" stroke="url(#linearGradient-10)" stroke-width="0.525">
                    <path d="M39.8690341,30.3719649 C39.9341218,30.4066614 41.0818258,31.0339629 41.4686225,31.2360219 C41.9194323,31.4715208 42.3236871,31.6692695 42.7068482,31.838438 C44.4401327,32.6036966 45.5601891,32.694147 45.9821309,31.9891075 C46.4376623,31.2279418 45.4941033,30.365175 43.2585987,29.2478007 C42.9935056,29.1152989 41.3892252,28.3510665 41.0386639,28.1641918 C38.8651973,27.0055759 37.9570524,26.8352264 37.4184604,27.6740704 C37.1417639,28.1050183 37.234269,28.49672 37.7009795,28.9599051 C38.1188596,29.3746288 38.762445,29.7820724 39.8690341,30.3719649 Z" stroke-linejoin="square"></path>
                    <use xlink:href="#path-11"></use>
                </g>
                <g id="Oval" transform="translate(43.180862, 18.673349) rotate(82.000000) translate(-43.180862, -18.673349) " stroke="url(#linearGradient-12)" stroke-width="0.525">
                    <path d="M43.1079123,23.6882873 C43.710657,23.8039089 44.0102412,23.6000728 44.1801251,23.026086 C44.3285561,22.5245822 44.353654,21.9705786 44.3385081,20.5316766 C44.3349432,20.1929963 44.3336812,20.0310846 44.3336812,19.8349825 C44.3336812,19.3518878 44.36219,18.9620492 44.4619948,17.8747734 C44.4820118,17.6567078 44.4941924,17.5214227 44.5063923,17.3795899 C44.7223949,14.8684034 44.5170685,13.7719721 43.5684818,13.6383151 C42.8539136,13.5376316 42.3589445,14.2475349 42.0704455,15.7006929 C41.8507378,16.8073518 41.7832385,18.0717945 41.7832385,19.8349825 C41.7832385,20.0319486 41.7819064,20.1979797 41.7784099,20.5126003 C41.7517155,22.9145604 41.9299151,23.4623179 43.1079123,23.6882873 Z" stroke-linejoin="square"></path>
                    <use xlink:href="#path-13"></use>
                </g>
                <g id="Oval" transform="translate(37.896863, 8.824902) rotate(35.000000) translate(-37.896863, -8.824902) " stroke="url(#linearGradient-14)" stroke-width="0.525">
                    <path d="M38.5039513,13.5332678 C39.2936422,13.2117167 39.4641464,12.2813501 39.3442342,10.1011209 C39.3371394,9.97358577 39.3371394,9.97358577 39.3298664,9.8459118 C39.2891432,9.13151573 39.2761923,8.83647719 39.2761923,8.47330383 C39.2761923,8.35947694 39.2776688,8.24243376 39.280544,8.12097521 C39.2883367,7.79179242 39.3027738,7.50210678 39.3348883,6.96522356 C39.4760043,4.60607397 39.3520426,3.95327867 38.5420569,3.87363672 C37.7248102,3.79328082 37.0573668,4.66662014 36.7763727,6.15560855 C36.712029,6.4965655 36.6866158,6.88631013 36.685475,7.40438097 C36.685132,7.56013966 36.6864396,7.68985065 36.6903608,7.96287566 C36.6941607,8.22745639 36.6953431,8.33506003 36.6953431,8.47330383 C36.6953431,8.80516054 36.6737176,9.00513448 36.5461181,10.0097294 C36.5106796,10.2887373 36.4871868,10.4846686 36.4665191,10.6804621 C36.3756364,11.5414297 36.3748336,12.1456801 36.490021,12.5716796 C36.7029397,13.3591208 37.4760441,13.8243762 37.816167,13.7824576 C37.9489252,13.7660958 38.0793003,13.7268777 38.2181834,13.6670621 C38.2822703,13.6394605 38.4712802,13.546571 38.5039513,13.5332678 Z" stroke-linejoin="square"></path>
                    <use xlink:href="#path-15"></use>
                </g>
                <g id="Oval-3" stroke="url(#linearGradient-16)" stroke-width="0.525">
                    <path d="M21.976401,45.5754944 C23.1129254,45.6751824 23.7295413,44.3168905 23.9542703,41.7416408 C23.9725788,41.5318363 23.993325,41.3129251 24.0371864,40.8557374 C24.0790252,40.4144967 24.1059493,40.1054482 24.1280992,39.7953836 C24.2864404,37.5788558 24.0576171,36.4323049 23.317134,36.3673549 C22.6201708,36.3062222 22.2755115,36.4625855 21.9995944,37.0847025 C21.6032685,37.9783081 21.3785266,39.4150415 21.1966244,41.499525 C21.1840257,41.6438978 21.1713722,41.7814588 21.1507769,42.0003856 C21.0125412,43.4698232 20.9876017,44.0004799 21.0741043,44.5546817 C21.1771066,45.2145928 21.442581,45.5286715 21.976401,45.5754944 Z" stroke-linejoin="square"></path>
                    <use xlink:href="#path-17"></use>
                </g>
                <g id="Oval-3" stroke="url(#linearGradient-18)" stroke-width="0.525">
                    <path d="M37.2062276,42.7368655 L37.2348513,42.7157128 C38.1836428,42.1094722 38.2059019,41.1049716 37.4540725,39.7075707 C36.8992879,38.6764106 36.105423,37.6984981 34.863498,36.3632817 C32.927102,34.2814269 33.2004076,34.5570392 32.7351408,34.3390014 C32.3828677,34.1739158 32.0607859,34.1951169 31.6689229,34.4317727 C31.3110033,34.6479292 32.1841617,36.9300258 33.6211341,39.2149952 C35.1549621,41.6539775 36.7075889,43.1605128 37.2062276,42.7368655 Z" stroke-linejoin="square"></path>
                    <use xlink:href="#path-19"></use>
                </g>
                <g id="Oval-3" transform="translate(8.994695, 14.179238) rotate(113.000000) translate(-8.994695, -14.179238) " stroke="url(#linearGradient-20)" stroke-width="0.525">
                    <path d="M8.10071142,18.7191654 C9.00538867,18.9051803 9.52614911,18.6853844 9.82888285,18.1022853 C10.0888068,17.6016428 10.1832072,16.9129576 10.2123413,15.7118677 C10.2151354,15.5966769 10.2170038,15.5031889 10.2208868,15.2944756 C10.2410771,14.2116988 10.269233,13.7636318 10.3801989,13.295498 C10.8304767,11.3959029 10.268919,9.83951463 9.08931369,9.58951769 C8.61541144,9.48908231 8.12018385,9.8768439 7.89586073,10.876245 C7.83294673,11.1565386 7.60718851,14.2985977 7.58935413,15.2523028 C7.58776609,15.337224 7.5014486,16.0553874 7.52078895,15.884354 C7.46701143,16.3599271 7.44381719,16.7605982 7.46059707,17.1463464 C7.49507972,17.9390591 7.70010781,18.4825595 8.10071142,18.7191654 Z" stroke-linejoin="square"></path>
                    <use xlink:href="#path-21"></use>
                </g>
            </g>
            <path d="M30.163519,21.4076923 C30.3862893,21.4076923 30.768561,21.1466831 30.768561,20.7 C30.768561,20.2533169 30.58797,19.9923077 30.3651996,19.9923077 C30.2417161,19.9923077 30.0692244,20.1035684 29.9399972,20.2788215 C29.8950503,20.3397769 30.0511475,20.4231701 30.0117654,20.5814467 C29.9723833,20.7397233 29.7630127,20.8974084 29.7647162,20.9181913 C29.7940521,21.2760948 29.9614299,21.4076923 30.163519,21.4076923 Z" id="Oval-6" stroke="url(#linearGradient-4)" stroke-width="0.2" fill="url(#linearGradient-4)"></path>
            <path d="M25.2764971,19.895671 C25.0947875,20.0676512 24.4238798,19.450982 23.5966195,19.6030769 C23.4201489,19.6384615 23.1881411,19.8461255 23.2436783,19.9923077 C23.2770303,20.0800949 23.3315788,20.1692308 23.4201489,20.1692308 C23.6942248,20.1692308 23.4704367,19.9962649 24.0724568,19.9962649 C24.8751503,19.9962649 25.5953646,20.5561237 25.7142666,20.4992347 C25.7749085,20.4702204 25.8785172,20.4556238 25.8785172,20.2980468 C25.8785172,19.8315051 25.6778438,19.4932951 25.2764971,19.2317508 C24.8703454,19.0305629 24.5756016,19.0909193 24.5756016,19.2921072 C24.5756016,19.3669354 24.9334998,19.3926922 25.0758237,19.4932951 C25.3161609,19.6631797 25.3613254,19.8153846 25.2764971,19.895671 Z" id="Path-2" stroke="url(#linearGradient-22)" stroke-width="0.2" fill="url(#linearGradient-22)" stroke-linecap="round" stroke-linejoin="round"></path>
            <path d="M26.9411765,23.1769231 C26.9411765,22.9868303 27.8235294,22.8230769 28,22.6461538 C28.1153369,22.5305212 28.0562607,22.2496582 27.8235294,22.1808462 C27.5907981,22.1120341 27.4705882,22.3158373 27.2941176,22.2157194 C27.1176471,22.1153846 27.5877229,21.7615385 28,21.7615385 C28.3529412,21.7615385 28.5835611,21.9463047 28.6918599,22.3158373 C28.8095069,22.9055808 28.5742128,23.259427 27.9859775,23.3773757 C27.1036246,23.5542988 26.9411765,23.3670158 26.9411765,23.1769231 Z" id="Path-3" stroke="url(#linearGradient-4)" stroke-width="0.5" fill="url(#linearGradient-4)"></path>
            <path d="M25.9216809,26.262336 C25.5935993,26.6905633 25.3174262,26.9773428 25.0931618,27.1226746 C24.1225735,27.8303669 22.9711025,27.7374818 22.1813971,26.9457515 C21.6328703,26.3958182 21.4358179,25.8264555 21.4755147,25.3534438 C21.4974813,25.0916982 21.7583417,24.6701475 22.1813971,24.2919053 C22.2824318,24.2015729 22.4455187,24.0913093 22.6706576,23.9611143 C22.5950635,23.8451526 22.5304781,23.7218134 22.4813971,23.584213 C22.2897519,23.0469289 22.2936039,22.3626248 22.3578677,21.8149822 C22.3578677,21.7922182 22.3994235,21.6870201 22.3578677,21.6380592 C22.3163118,21.5890982 22.2538787,21.7268531 22.1813971,21.6911361 C22.1232649,21.6624901 22.0049265,21.6380592 22.0931618,21.4611361 C22.1813971,21.284213 22.3307145,21.1916705 22.4990441,21.1072899 C22.8519853,20.9303669 23.4779766,21.230175 23.5931618,21.4611361 C23.7696324,21.8149822 23.7530474,21.8674837 23.6899559,21.9919053 C23.6405943,22.0892503 23.4904951,22.1077423 23.4166912,22.0803669 C23.3537886,22.0570349 23.311974,21.8869196 23.2402206,21.8149822 C23.189262,21.763893 23.1480855,21.763893 23.1166912,21.8149822 C23.1133282,22.4132222 23.1545046,22.8201453 23.2402206,23.0357515 C23.2670931,23.1033455 23.2402206,23.4072899 24.0343383,24.1149822 C24.7290312,24.7078852 25.7310423,25.1441089 26.4166912,25.3534438 C27.8658132,25.7958741 29.2368103,25.7084296 29.7696324,25.5303669 C30.0417757,25.4394198 30.489988,25.2161249 30.6519853,24.8226746 C30.8443774,24.3554031 30.7209024,23.707174 30.6519853,23.584213 C30.6093787,23.5081949 30.5668366,23.37768 30.4755147,23.2834438 C30.3723832,23.177021 30.2173388,23.0904752 30.1225735,23.0357515 C30.032773,22.9838947 29.9964231,23.0814711 29.946103,23.0534438 C29.7696324,22.8765207 29.7696324,22.6995976 30.1225735,22.6995976 C30.2841447,22.6995976 30.4734545,22.7742989 30.652408,22.8890038 C30.8643662,23.0248638 31.0842597,23.212517 31.1813971,23.4072899 C31.5343383,24.1149822 31.5960512,25.7652109 30.2990441,26.2380592 C28.8239778,26.7758223 27.2762041,26.7081897 25.9216809,26.262336 Z M25.4157557,26.0747345 C24.88012,25.8531767 24.3829532,25.5724122 23.9428085,25.2482886 C23.4051713,25.7715018 23.2734221,25.9206796 23.06375,26.0611361 C22.656964,26.3336364 22.5150725,26.1302839 22.7108088,25.884213 C22.8041217,25.7669043 23.0982394,25.4720325 23.5931618,24.9995976 L23.5495792,24.9340562 C23.4418532,24.8406011 23.3386154,24.7443986 23.2402206,24.6457515 C23.2038397,24.6047438 23.1676787,24.5646079 23.1319422,24.5250304 C22.6215003,24.7937612 22.3164167,25.0109247 22.2166912,25.1765207 C22.0571506,25.441441 22.1997752,25.8839315 22.2804204,26.0606077 C22.3612587,26.2377069 22.5047215,26.4148061 22.7108088,26.5919053 C23.5308092,27.2965649 24.4324581,27.1241747 25.4157557,26.0747345 Z" id="Combined-Shape" fill="url(#linearGradient-4)"></path>
        </g>
    </g>
</svg>