<?xml version="1.0" encoding="UTF-8"?>
<svg width="27px" height="35px" viewBox="0 0 27 35" version="1.1" xmlns="http://www.w3.org/2000/svg" xmlns:xlink="http://www.w3.org/1999/xlink">
    <!-- Generator: Sketch 53.2 (72643) - https://sketchapp.com -->
    <title>Explore</title>
    <desc>Created with Sketch.</desc>
    <g id="indexPage" stroke="none" stroke-width="1" fill="none" fill-rule="evenodd">
        <g id="XiqunPortfolio-selected" transform="translate(-324.000000, -1294.000000)">
            <g id="Explore" transform="translate(309.000000, 1283.000000)">
                <rect id="Rectangle-path" x="0" y="0" width="57" height="57"></rect>
                <g id="Group-13" opacity="0.86" transform="translate(16.150000, 11.400000)">
                    <path d="M12.35,4.75 L11.9225,4.75 C11.9749077,4.96793295 12.0035746,5.1908979 12.008,5.415 C12.0029901,6.63780192 11.1762112,7.70434047 9.99325772,8.0140025 C8.81030419,8.32366454 7.56699896,7.7990124 6.9635,6.7355 C3.9278686,9.33556721 3.19087648,13.7368255 5.21390094,17.1839663 C7.23692541,20.631107 11.4388183,22.1338805 15.1890792,20.7515092 C18.9393402,19.3691379 21.1606429,15.4987315 20.462391,11.5632707 C19.764139,7.62780986 16.3469171,4.7578227 12.35,4.75 L12.35,4.75 Z" id="Shape" fill="#FFC824" fill-rule="nonzero"></path>
                    <path d="M9.253,29.8015 L15.4375,29.8015 L15.4375,31.9675 C15.4375,32.8594399 14.7144399,33.5825 13.8225,33.5825 L10.868,33.5825 C10.4396754,33.5825 10.0288938,33.4123487 9.72602255,33.1094775 C9.4231513,32.8066062 9.253,32.3958246 9.253,31.9675 L9.253,29.8015 L9.253,29.8015 Z" id="Shape" stroke="#6B400D" stroke-width="1.9" stroke-linecap="round" stroke-linejoin="round"></path>
                    <path d="M24.7,12.958 C24.7132645,9.13594711 22.9561458,5.52311597 19.9413849,3.17375848 C16.9266239,0.82440099 12.9939694,0.00327818086 9.291,0.95 C4.7964993,2.01513647 1.31247363,5.56566528 0.3325,10.0795 C-0.747264299,14.6987855 0.914266231,19.5283009 4.6075,22.5055 C6.18263378,23.7440846 7.10900419,25.6317828 7.125,27.6355 L7.125,27.6355 C7.1302023,28.8086003 8.07989967,29.7582977 9.253,29.7635 L15.447,29.7635 C16.6201003,29.7582977 17.5697977,28.8086003 17.575,27.6355 L17.575,27.6355 C17.5676619,25.6957995 18.4413058,23.8576528 19.95,22.6385 C22.940745,20.3162516 24.693337,16.7444692 24.7,12.958 Z" id="Shape" stroke="#6B400D" stroke-width="1.9" stroke-linecap="round" stroke-linejoin="round"></path>
                    <path d="M9.253,29.8015 L15.4375,29.8015 L15.4375,31.9675 C15.4375,32.8594399 14.7144399,33.5825 13.8225,33.5825 L10.868,33.5825 C10.4396754,33.5825 10.0288938,33.4123487 9.72602255,33.1094775 C9.4231513,32.8066062 9.253,32.3958246 9.253,31.9675 L9.253,29.8015 L9.253,29.8015 Z" id="Shape" stroke="#6B400D" stroke-width="1.9" stroke-linecap="round" stroke-linejoin="round"></path>
                    <path d="M24.7,12.958 C24.7132645,9.13594711 22.9561458,5.52311597 19.9413849,3.17375848 C16.9266239,0.82440099 12.9939694,0.00327818086 9.291,0.95 C4.7964993,2.01513647 1.31247363,5.56566528 0.3325,10.0795 C-0.747264299,14.6987855 0.914266231,19.5283009 4.6075,22.5055 C6.18263378,23.7440846 7.10900419,25.6317828 7.125,27.6355 L7.125,27.6355 C7.1302023,28.8086003 8.07989967,29.7582977 9.253,29.7635 L15.447,29.7635 C16.6201003,29.7582977 17.5697977,28.8086003 17.575,27.6355 L17.575,27.6355 C17.5676619,25.6957995 18.4413058,23.8576528 19.95,22.6385 C22.940745,20.3162516 24.693337,16.7444692 24.7,12.958 Z" id="Shape" stroke="#6B400D" stroke-width="1.9" stroke-linecap="round" stroke-linejoin="round"></path>
                    <path d="M4.6265,10.26 C4.98322244,9.2346884 5.54209079,8.29139615 6.27,7.486" id="Shape" stroke="#6B400D" stroke-width="1.9" stroke-linecap="round" stroke-linejoin="round"></path>
                </g>
            </g>
        </g>
    </g>
</svg>