<?xml version="1.0" encoding="UTF-8"?>
<svg width="29px" height="35px" viewBox="0 0 29 35" version="1.1" xmlns="http://www.w3.org/2000/svg" xmlns:xlink="http://www.w3.org/1999/xlink">
    <!-- Generator: Sketch 51.2 (57519) - http://www.bohemiancoding.com/sketch -->
    <title>Trend</title>
    <desc>Created with Sketch.</desc>
    <defs></defs>
    <g id="Page-1" stroke="none" stroke-width="1" fill="none" fill-rule="evenodd" opacity="0.86">
        <g id="Xiqun-portfolio" transform="translate(-1092.000000, -1293.000000)">
            <g id="01-skills-set" transform="translate(261.000000, 989.000000)">
                <g id="Group-12" transform="translate(0.000000, 117.000000)">
                    <g id="4" transform="translate(771.000000, 155.000000)">
                        <g id="Trend" transform="translate(44.000000, 20.000000)">
                            <rect id="Rectangle-path" x="0" y="0" width="60" height="60"></rect>
                            <path d="M37.18,31.25 C36.9433048,30.9481329 36.5547909,30.8082679 36.18,30.89 C35.8200992,30.95567 35.5247859,31.2126309 35.41,31.56 C35.1178998,32.3789473 34.6846951,33.14044 34.13,33.81 C34.1701898,33.4380224 34.1902191,33.0641424 34.19,32.69 C34.1855311,32.2253661 34.1554856,31.7613306 34.1,31.3 C33.9673776,30.3723781 33.7083024,29.4672971 33.33,28.61 C33.2953519,28.5128747 33.2518349,28.4191458 33.2,28.33 C32.4029165,26.6029185 31.1297883,25.1389946 29.53,24.11 C29.2296126,23.9156429 28.8482765,23.8965761 28.53,24.06 C28.2077882,24.2315327 28.0046393,24.5650035 28,24.93 C27.9867443,25.9723472 27.7371446,26.9980991 27.27,27.93 C26.6995761,29.071041 25.8148063,30.0252045 24.72,30.68 C23.5786596,31.3708087 22.6051751,32.3067201 21.87,33.42 C20.9422684,34.8452224 20.448913,36.5094285 20.45,38.21 C20.4437012,41.2484776 22.0248809,44.0695752 24.62,45.65 C24.9560369,45.8741995 25.3939631,45.8741995 25.73,45.65 C26.0622089,45.4124714 26.2166008,44.9968008 26.12,44.6 C25.7070475,42.9146849 25.8293819,41.1425834 26.47,39.53 C26.6310468,39.0861359 26.831863,38.6577281 27.07,38.25 L27.13,38.39 C28.4813601,41.4872571 30.8007061,44.0627487 33.74,45.73 C33.96,45.86 34.18,45.97 34.41,46.08 L34.51,46.14 C34.6501653,46.2079235 34.8042591,46.2421666 34.96,46.24 C35.1902147,46.238139 35.4127364,46.1569009 35.59,46.01 C37.3700887,44.5811661 38.6371556,42.612123 39.2,40.4 C39.4010062,39.557959 39.5050158,38.6956857 39.51,37.83 C39.5088719,35.4347152 38.6864745,33.1122367 37.18,31.25 Z" id="Shape" fill="#FFC824" fill-rule="nonzero"></path>
                            <path d="M22.35,24.14 L22.73,23.9" id="Shape" stroke="#6B400D" stroke-width="2" stroke-linecap="round" stroke-linejoin="round"></path>
                            <path d="M27.24,19.05 C28.0524436,17.4243367 28.4898496,15.6371232 28.52,13.82 C30.7613829,15.2703698 32.5413384,17.3313709 33.65,19.76 C33.6997086,19.828456 33.7338397,19.9069577 33.75,19.99 C34.2955894,21.2013729 34.6659708,22.4842396 34.85,23.8 C34.9361079,24.4400162 34.9861868,25.084365 35,25.73 C35.0001569,27.6595598 34.6053898,29.5687351 33.84,31.34 C34.13,31.2 34.43,31.04 34.72,30.87 C36.2837638,29.9410748 37.606265,28.6562614 38.58,27.12 C39.1269276,26.2985333 39.5608214,25.4072012 39.87,24.47 C41.9662504,27.0581452 43.1069107,30.2894274 43.1,33.62 C43.0949862,34.8259092 42.9506966,36.0272035 42.67,37.2 C41.7577296,40.738302 39.5620531,43.8108234 36.51,45.82 C35.7543679,45.5538208 35.0246623,45.2190935 34.33,44.82 C31.5719015,43.2597285 29.3958584,40.8450227 28.13,37.94 C27.8656621,37.3434868 27.6450796,36.7285298 27.47,36.1 C26.6561402,36.9659541 26.0237323,37.9859668 25.61,39.1 C24.7939636,41.1745704 24.7443252,43.472121 25.47,45.58 C21.8681505,44.4808287 18.9911908,41.754584 17.6999839,38.2170309 C16.408777,34.6794777 16.8531002,30.7409648 18.9,27.58 C19.07,27.31 19.26,27.05 19.46,26.79" id="Shape" stroke="#6B400D" stroke-width="2" stroke-linecap="round" stroke-linejoin="round"></path>
                        </g>
                    </g>
                </g>
            </g>
        </g>
    </g>
</svg>