<?xml version="1.0" encoding="UTF-8"?>
<svg width="444px" height="66px" viewBox="0 0 444 66" version="1.1" xmlns="http://www.w3.org/2000/svg" xmlns:xlink="http://www.w3.org/1999/xlink">
    <!-- Generator: Sketch 53.2 (72643) - https://sketchapp.com -->
    <title>XIQUN LI</title>
    <desc>Created with Sketch.</desc>
    <defs>
        <path d="M27.688,26.864 L44.672,1.696 L52.24,1.696 L31.56,31.352 L54.44,64 L46.52,64 L27.512,35.928 L8.592,64 L0.672,64 L23.552,31.264 L2.696,1.696 L10.616,1.696 L27.688,26.864 Z M82.0416352,64 L75.7056352,64 L75.7056352,1.696 L82.0416352,1.696 L82.0416352,64 Z M113.25127,32.056 C113.25127,35.5760176 113.823265,38.9199842 114.96727,42.088 C116.111276,45.2560158 117.73926,48.0573212 119.85127,50.492 C121.963281,52.9266788 124.559255,54.8626595 127.63927,56.3 C130.719286,57.7373405 134.195251,58.456 138.06727,58.456 C141.880623,58.456 145.327255,57.7373405 148.40727,56.3 C151.487286,54.8626595 154.097926,52.9266788 156.23927,50.492 C158.380615,48.0573212 160.037931,45.2560158 161.21127,42.088 C162.38461,38.9199842 162.97127,35.5760176 162.97127,32.056 C162.97127,28.5359824 162.38461,25.1920158 161.21127,22.024 C160.037931,18.8559842 158.380615,16.0546788 156.23927,13.62 C154.097926,11.1853212 151.487286,9.24934052 148.40727,7.812 C145.327255,6.37465948 141.880623,5.656 138.06727,5.656 C134.195251,5.656 130.719286,6.37465948 127.63927,7.812 C124.559255,9.24934052 121.963281,11.1853212 119.85127,13.62 C117.73926,16.0546788 116.111276,18.8559842 114.96727,22.024 C113.823265,25.1920158 113.25127,28.5359824 113.25127,32.056 Z M173.70727,64 L138.06727,64 C133.549915,64 129.369956,63.2080079 125.52727,61.624 C121.684585,60.0399921 118.355285,57.8253476 115.53927,54.98 C112.723256,52.1346524 110.523278,48.7613528 108.93927,44.86 C107.355263,40.9586472 106.56327,36.6906898 106.56327,32.056 C106.56327,27.4213102 107.355263,23.1533528 108.93927,19.252 C110.523278,15.3506472 112.723256,11.9773476 115.53927,9.132 C118.355285,6.28665244 121.684585,4.07200792 125.52727,2.488 C129.369956,0.90399208 133.549915,0.112 138.06727,0.112 C142.525959,0.112 146.676585,0.90399208 150.51927,2.488 C154.361956,4.07200792 157.691256,6.28665244 160.50727,9.132 C163.323285,11.9773476 165.523263,15.3506472 167.10727,19.252 C168.691278,23.1533528 169.48327,27.4213102 169.48327,32.056 C169.48327,37.5706942 168.265949,42.6013106 165.83127,47.148 C163.396592,51.6946894 159.744628,55.3759859 154.87527,58.192 L154.87527,58.368 L173.70727,58.368 L173.70727,64 Z M218.380906,65.584 C213.687549,65.584 209.844921,64.7773414 206.852906,63.164 C203.860891,61.5506586 201.484915,59.5120123 199.724906,57.048 C197.964897,54.5839877 196.747576,51.9000145 196.072906,48.996 C195.398236,46.0919855 195.060906,43.3493462 195.060906,40.768 L195.060906,1.696 L201.396906,1.696 L201.396906,40.064 C201.396906,42.5866793 201.690236,45.0359881 202.276906,47.412 C202.863575,49.7880119 203.816899,51.8999908 205.136906,53.748 C206.456912,55.5960092 208.202228,57.0919943 210.372906,58.236 C212.543583,59.3800057 215.21289,59.952 218.380906,59.952 C221.548922,59.952 224.218228,59.3800057 226.388906,58.236 C228.559583,57.0919943 230.304899,55.5960092 231.624906,53.748 C232.944912,51.8999908 233.898236,49.7880119 234.484906,47.412 C235.071575,45.0359881 235.364906,42.5866793 235.364906,40.064 L235.364906,1.696 L241.700906,1.696 L241.700906,40.768 C241.700906,43.3493462 241.363576,46.0919855 240.688906,48.996 C240.014236,51.9000145 238.796915,54.5839877 237.036906,57.048 C235.276897,59.5120123 232.886254,61.5506586 229.864906,63.164 C226.843557,64.7773414 223.015596,65.584 218.380906,65.584 Z M313.390541,54.76 L313.566541,54.76 L313.566541,1.696 L319.902541,1.696 L319.902541,64 L311.982541,64 L275.726541,10.408 L275.550541,10.408 L275.550541,64 L269.214541,64 L269.214541,1.696 L277.134541,1.696 L313.390541,54.76 Z M387.425811,58.368 L416.465811,58.368 L416.465811,64 L381.089811,64 L381.089811,1.696 L387.425811,1.696 L387.425811,58.368 Z M443.627447,64 L437.291447,64 L437.291447,1.696 L443.627447,1.696 L443.627447,64 Z" id="path-1"></path>
    </defs>
    <g id="indexPage" stroke="none" stroke-width="1" fill="none" fill-rule="evenodd">
        <g id="XiqunPortfolio-selected" transform="translate(-202.000000, -331.000000)">
            <g id="rolling-word" transform="translate(202.000000, 331.000000)">
                <g id="Group-5">
                    <mask id="mask-2" fill="white">
                        <use xlink:href="#path-1"></use>
                    </mask>
                    <use id="XIQUN-LI" fill="#FFFFFF" xlink:href="#path-1"></use>
                </g>
            </g>
        </g>
    </g>
</svg>